<svg xmlns="http://www.w3.org/2000/svg" viewBox="0 0 18 20" shape-rendering="crispEdges"><rect x="5" y="0" width="1" height="1" fill="#6b4d33"/><rect x="6" y="0" width="4" height="1" fill="#4a3524"/><rect x="10" y="0" width="1" height="1" fill="#6b4d33"/><rect x="3" y="1" width="9" height="1" fill="#4a3524"/><rect x="12" y="1" width="1" height="1" fill="#6b4d33"/><rect x="2" y="2" width="2" height="1" fill="#4a3524"/><rect x="4" y="2" width="1" height="1" fill="#6b4d33"/><rect x="5" y="2" width="9" height="1" fill="#4a3524"/><rect x="2" y="3" width="12" height="1" fill="#4a3524"/><rect x="14" y="3" width="1" height="1" fill="#6b4d33"/><rect x="2" y="4" width="2" height="1" fill="#4a3524"/><rect x="4" y="4" width="8" height="1" fill="#e6b18c"/><rect x="12" y="4" width="2" height="1" fill="#4a3524"/><rect x="2" y="5" width="1" height="1" fill="#4a3524"/><rect x="3" y="5" width="10" height="1" fill="#e6b18c"/><rect x="13" y="5" width="1" height="1" fill="#4a3524"/><rect x="2" y="6" width="1" height="1" fill="#4a3524"/><rect x="3" y="6" width="2" height="1" fill="#e6b18c"/><rect x="5" y="6" width="1" height="1" fill="#1c1a15"/><rect x="6" y="6" width="4" height="1" fill="#e6b18c"/><rect x="10" y="6" width="1" height="1" fill="#1c1a15"/><rect x="11" y="6" width="2" height="1" fill="#e6b18c"/><rect x="13" y="6" width="1" height="1" fill="#4a3524"/><rect x="3" y="7" width="10" height="1" fill="#e6b18c"/><rect x="3" y="8" width="10" height="1" fill="#e6b18c"/><rect x="3" y="9" width="1" height="1" fill="#e6b18c"/><rect x="4" y="9" width="1" height="1" fill="#c98f6b"/><rect x="5" y="9" width="6" height="1" fill="#e6b18c"/><rect x="11" y="9" width="1" height="1" fill="#c98f6b"/><rect x="12" y="9" width="1" height="1" fill="#e6b18c"/><rect x="3" y="10" width="1" height="1" fill="#e6b18c"/><rect x="4" y="10" width="1" height="1" fill="#c98f6b"/><rect x="5" y="10" width="2" height="1" fill="#e6b18c"/><rect x="7" y="10" width="2" height="1" fill="#c98f6b"/><rect x="9" y="10" width="2" height="1" fill="#e6b18c"/><rect x="11" y="10" width="1" height="1" fill="#c98f6b"/><rect x="12" y="10" width="1" height="1" fill="#e6b18c"/><rect x="3" y="11" width="1" height="1" fill="#c98f6b"/><rect x="4" y="11" width="8" height="1" fill="#e6b18c"/><rect x="12" y="11" width="1" height="1" fill="#c98f6b"/><rect x="4" y="12" width="1" height="1" fill="#c98f6b"/><rect x="5" y="12" width="6" height="1" fill="#e6b18c"/><rect x="11" y="12" width="1" height="1" fill="#c98f6b"/><rect x="6" y="13" width="4" height="1" fill="#e6b18c"/><rect x="3" y="14" width="1" height="1" fill="#1c1a15"/><rect x="4" y="14" width="3" height="1" fill="#ffffff"/><rect x="7" y="14" width="2" height="1" fill="#e6b18c"/><rect x="9" y="14" width="3" height="1" fill="#ffffff"/><rect x="12" y="14" width="1" height="1" fill="#1c1a15"/><rect x="2" y="15" width="1" height="1" fill="#1c1a15"/><rect x="3" y="15" width="10" height="1" fill="#ffffff"/><rect x="13" y="15" width="1" height="1" fill="#1c1a15"/><rect x="1" y="16" width="1" height="1" fill="#1c1a15"/><rect x="2" y="16" width="12" height="1" fill="#ffffff"/><rect x="14" y="16" width="1" height="1" fill="#1c1a15"/><rect x="1" y="17" width="1" height="1" fill="#1c1a15"/><rect x="2" y="17" width="2" height="1" fill="#ffffff"/><rect x="4" y="17" width="8" height="1" fill="#e6b18c"/><rect x="12" y="17" width="2" height="1" fill="#ffffff"/><rect x="14" y="17" width="1" height="1" fill="#1c1a15"/><rect x="1" y="18" width="1" height="1" fill="#1c1a15"/><rect x="2" y="18" width="12" height="1" fill="#ffffff"/><rect x="14" y="18" width="1" height="1" fill="#1c1a15"/><rect x="1" y="19" width="14" height="1" fill="#1c1a15"/></svg>