<svg xmlns="http://www.w3.org/2000/svg" viewBox="0 0 200 44" shape-rendering="crispEdges" preserveAspectRatio="none"><style>@keyframes drift{from{transform:translateX(0)}to{transform:translateX(-200px)}}.far{animation:drift 96s linear infinite}.mid{animation:drift 54s linear infinite}.near{animation:drift 28s linear infinite}@keyframes twinkle{0%,88%{opacity:.85}92%,96%{opacity:.12}100%{opacity:.85}}.star{animation:twinkle 6s steps(1,end) infinite;animation-delay:calc(var(--i) * -0.29s);animation-duration:calc(4s + (var(--i) % 5) * 1.3s)}@media (prefers-reduced-motion:reduce){.far,.mid,.near,.star{animation:none}}</style><rect class="star" style="--i:0" x="168" y="2" width="1" height="1" fill="#f4f0e6"/><rect class="star" style="--i:1" x="135" y="0" width="1" height="1" fill="#f4f0e6"/><rect class="star" style="--i:2" x="134" y="1" width="1" height="1" fill="#f4f0e6"/><rect class="star" style="--i:3" x="21" y="2" width="1" height="1" fill="#f4f0e6"/><rect class="star" style="--i:4" x="95" y="8" width="1" height="1" fill="#f4f0e6"/><rect class="star" style="--i:5" x="43" y="9" width="1" height="1" fill="#f4f0e6"/><rect class="star" style="--i:6" x="61" y="2" width="1" height="1" fill="#f4f0e6"/><rect class="star" style="--i:7" x="122" y="2" width="1" height="1" fill="#f4f0e6"/><rect class="star" style="--i:8" x="88" y="15" width="1" height="1" fill="#f4f0e6"/><rect class="star" style="--i:9" x="168" y="16" width="1" height="1" fill="#f4f0e6"/><rect class="star" style="--i:10" x="155" y="13" width="1" height="1" fill="#f4f0e6"/><rect class="star" style="--i:11" x="19" y="13" width="1" height="1" fill="#f4f0e6"/><rect class="star" style="--i:12" x="123" y="6" width="1" height="1" fill="#f4f0e6"/><rect class="star" style="--i:13" x="130" y="16" width="1" height="1" fill="#f4f0e6"/><rect class="star" style="--i:14" x="165" y="10" width="1" height="1" fill="#f4f0e6"/><rect class="star" style="--i:15" x="170" y="4" width="1" height="1" fill="#f4f0e6"/><rect class="star" style="--i:16" x="19" y="1" width="1" height="1" fill="#f4f0e6"/><rect class="star" style="--i:17" x="195" y="0" width="1" height="1" fill="#f4f0e6"/><rect class="star" style="--i:18" x="59" y="6" width="1" height="1" fill="#f4f0e6"/><rect class="star" style="--i:19" x="178" y="3" width="1" height="1" fill="#f4f0e6"/><rect class="star" style="--i:20" x="110" y="12" width="1" height="1" fill="#f4f0e6"/><rect class="star" style="--i:21" x="143" y="2" width="1" height="1" fill="#f4f0e6"/><rect class="star" style="--i:22" x="35" y="5" width="1" height="1" fill="#f4f0e6"/><rect class="star" style="--i:23" x="96" y="5" width="1" height="1" fill="#f4f0e6"/><rect class="star" style="--i:24" x="191" y="5" width="1" height="1" fill="#f4f0e6"/><rect class="star" style="--i:25" x="6" y="11" width="1" height="1" fill="#f4f0e6"/><g><rect x="172" y="5" width="7" height="7" fill="#e8a33d"/><rect x="175" y="4" width="4" height="1" fill="#e8a33d"/><rect x="175" y="12" width="4" height="1" fill="#e8a33d"/><rect x="176" y="6" width="2" height="2" fill="#c9400f"/><rect x="174" y="9" width="2" height="1" fill="#c9400f"/></g><g class="far"><rect x="0" y="34" width="10" height="10" fill="#3a342a"/><rect x="10" y="37" width="7" height="7" fill="#3a342a"/><rect x="17" y="31" width="7" height="13" fill="#3a342a"/><rect x="24" y="33" width="11" height="11" fill="#3a342a"/><rect x="35" y="30" width="10" height="14" fill="#3a342a"/><rect x="45" y="38" width="6" height="6" fill="#3a342a"/><rect x="51" y="38" width="7" height="6" fill="#3a342a"/><rect x="58" y="28" width="8" height="16" fill="#3a342a"/><rect x="66" y="37" width="9" height="7" fill="#3a342a"/><rect x="75" y="36" width="11" height="8" fill="#3a342a"/><rect x="86" y="37" width="11" height="7" fill="#3a342a"/><rect x="97" y="35" width="11" height="9" fill="#3a342a"/><rect x="108" y="30" width="5" height="14" fill="#3a342a"/><rect x="113" y="35" width="7" height="9" fill="#3a342a"/><rect x="120" y="28" width="7" height="16" fill="#3a342a"/><rect x="127" y="30" width="5" height="14" fill="#3a342a"/><rect x="132" y="34" width="5" height="10" fill="#3a342a"/><rect x="137" y="29" width="12" height="15" fill="#3a342a"/><rect x="149" y="28" width="6" height="16" fill="#3a342a"/><rect x="155" y="31" width="8" height="13" fill="#3a342a"/><rect x="163" y="38" width="8" height="6" fill="#3a342a"/><rect x="171" y="38" width="5" height="6" fill="#3a342a"/><rect x="176" y="33" width="8" height="11" fill="#3a342a"/><rect x="184" y="34" width="11" height="10" fill="#3a342a"/><rect x="195" y="35" width="5" height="9" fill="#3a342a"/><g transform="translate(200,0)"><rect x="0" y="34" width="10" height="10" fill="#3a342a"/><rect x="10" y="37" width="7" height="7" fill="#3a342a"/><rect x="17" y="31" width="7" height="13" fill="#3a342a"/><rect x="24" y="33" width="11" height="11" fill="#3a342a"/><rect x="35" y="30" width="10" height="14" fill="#3a342a"/><rect x="45" y="38" width="6" height="6" fill="#3a342a"/><rect x="51" y="38" width="7" height="6" fill="#3a342a"/><rect x="58" y="28" width="8" height="16" fill="#3a342a"/><rect x="66" y="37" width="9" height="7" fill="#3a342a"/><rect x="75" y="36" width="11" height="8" fill="#3a342a"/><rect x="86" y="37" width="11" height="7" fill="#3a342a"/><rect x="97" y="35" width="11" height="9" fill="#3a342a"/><rect x="108" y="30" width="5" height="14" fill="#3a342a"/><rect x="113" y="35" width="7" height="9" fill="#3a342a"/><rect x="120" y="28" width="7" height="16" fill="#3a342a"/><rect x="127" y="30" width="5" height="14" fill="#3a342a"/><rect x="132" y="34" width="5" height="10" fill="#3a342a"/><rect x="137" y="29" width="12" height="15" fill="#3a342a"/><rect x="149" y="28" width="6" height="16" fill="#3a342a"/><rect x="155" y="31" width="8" height="13" fill="#3a342a"/><rect x="163" y="38" width="8" height="6" fill="#3a342a"/><rect x="171" y="38" width="5" height="6" fill="#3a342a"/><rect x="176" y="33" width="8" height="11" fill="#3a342a"/><rect x="184" y="34" width="11" height="10" fill="#3a342a"/><rect x="195" y="35" width="5" height="9" fill="#3a342a"/></g></g><g class="mid"><rect x="0" y="21" width="10" height="23" fill="#29231b"/><rect x="4" y="23" width="1" height="1" fill="#c08a35"/><rect x="4" y="26" width="1" height="1" fill="#c08a35"/><rect x="7" y="26" width="1" height="1" fill="#c08a35"/><rect x="1" y="29" width="1" height="1" fill="#ff6a3d"/><rect x="7" y="29" width="1" height="1" fill="#ff6a3d"/><rect x="10" y="26" width="6" height="18" fill="#29231b"/><rect x="11" y="31" width="1" height="1" fill="#c08a35"/><rect x="11" y="34" width="1" height="1" fill="#c08a35"/><rect x="14" y="34" width="1" height="1" fill="#c08a35"/><rect x="11" y="37" width="1" height="1" fill="#c08a35"/><rect x="14" y="37" width="1" height="1" fill="#c08a35"/><rect x="11" y="40" width="1" height="1" fill="#c08a35"/><rect x="16" y="20" width="10" height="24" fill="#29231b"/><rect x="23" y="22" width="1" height="1" fill="#c08a35"/><rect x="20" y="25" width="1" height="1" fill="#c08a35"/><rect x="23" y="25" width="1" height="1" fill="#c08a35"/><rect x="17" y="28" width="1" height="1" fill="#ff6a3d"/><rect x="20" y="28" width="1" height="1" fill="#c08a35"/><rect x="17" y="34" width="1" height="1" fill="#c08a35"/><rect x="20" y="34" width="1" height="1" fill="#c08a35"/><rect x="23" y="37" width="1" height="1" fill="#c08a35"/><rect x="17" y="40" width="1" height="1" fill="#c08a35"/><rect x="20" y="40" width="1" height="1" fill="#c08a35"/><rect x="23" y="40" width="1" height="1" fill="#c08a35"/><rect x="26" y="30" width="8" height="14" fill="#29231b"/><rect x="30" y="32" width="1" height="1" fill="#c08a35"/><rect x="34" y="27" width="10" height="17" fill="#29231b"/><rect x="35" y="29" width="1" height="1" fill="#c08a35"/><rect x="38" y="29" width="1" height="1" fill="#c08a35"/><rect x="41" y="32" width="1" height="1" fill="#c08a35"/><rect x="35" y="35" width="1" height="1" fill="#c08a35"/><rect x="38" y="35" width="1" height="1" fill="#ff6a3d"/><rect x="41" y="35" width="1" height="1" fill="#c08a35"/><rect x="44" y="19" width="8" height="25" fill="#29231b"/><rect x="48" y="21" width="1" height="1" fill="#c08a35"/><rect x="48" y="24" width="1" height="1" fill="#c08a35"/><rect x="48" y="36" width="1" height="1" fill="#c08a35"/><rect x="52" y="26" width="4" height="18" fill="#29231b"/><rect x="53" y="28" width="1" height="1" fill="#c08a35"/><rect x="56" y="29" width="4" height="15" fill="#29231b"/><rect x="57" y="31" width="1" height="1" fill="#c08a35"/><rect x="57" y="34" width="1" height="1" fill="#c08a35"/><rect x="60" y="18" width="10" height="26" fill="#29231b"/><rect x="64" y="20" width="1" height="1" fill="#c08a35"/><rect x="61" y="23" width="1" height="1" fill="#c08a35"/><rect x="64" y="23" width="1" height="1" fill="#c08a35"/><rect x="67" y="23" width="1" height="1" fill="#c08a35"/><rect x="64" y="26" width="1" height="1" fill="#c08a35"/><rect x="67" y="26" width="1" height="1" fill="#c08a35"/><rect x="67" y="29" width="1" height="1" fill="#c08a35"/><rect x="64" y="32" width="1" height="1" fill="#ff6a3d"/><rect x="67" y="32" width="1" height="1" fill="#ff6a3d"/><rect x="64" y="35" width="1" height="1" fill="#c08a35"/><rect x="64" y="38" width="1" height="1" fill="#c08a35"/><rect x="70" y="27" width="4" height="17" fill="#29231b"/><rect x="71" y="29" width="1" height="1" fill="#c08a35"/><rect x="71" y="38" width="1" height="1" fill="#c08a35"/><rect x="74" y="24" width="7" height="20" fill="#29231b"/><rect x="75" y="29" width="1" height="1" fill="#c08a35"/><rect x="75" y="35" width="1" height="1" fill="#ff6a3d"/><rect x="81" y="25" width="6" height="19" fill="#29231b"/><rect x="85" y="27" width="1" height="1" fill="#ff6a3d"/><rect x="82" y="30" width="1" height="1" fill="#c08a35"/><rect x="85" y="30" width="1" height="1" fill="#c08a35"/><rect x="82" y="36" width="1" height="1" fill="#c08a35"/><rect x="85" y="36" width="1" height="1" fill="#c08a35"/><rect x="87" y="27" width="9" height="17" fill="#29231b"/><rect x="91" y="35" width="1" height="1" fill="#c08a35"/><rect x="94" y="35" width="1" height="1" fill="#c08a35"/><rect x="96" y="23" width="9" height="21" fill="#29231b"/><rect x="97" y="25" width="1" height="1" fill="#c08a35"/><rect x="103" y="25" width="1" height="1" fill="#c08a35"/><rect x="97" y="28" width="1" height="1" fill="#c08a35"/><rect x="100" y="31" width="1" height="1" fill="#c08a35"/><rect x="103" y="31" width="1" height="1" fill="#ff6a3d"/><rect x="103" y="34" width="1" height="1" fill="#c08a35"/><rect x="100" y="37" width="1" height="1" fill="#ff6a3d"/><rect x="97" y="40" width="1" height="1" fill="#c08a35"/><rect x="105" y="23" width="6" height="21" fill="#29231b"/><rect x="106" y="25" width="1" height="1" fill="#c08a35"/><rect x="106" y="28" width="1" height="1" fill="#c08a35"/><rect x="109" y="34" width="1" height="1" fill="#c08a35"/><rect x="109" y="37" width="1" height="1" fill="#c08a35"/><rect x="106" y="40" width="1" height="1" fill="#c08a35"/><rect x="111" y="25" width="7" height="19" fill="#29231b"/><rect x="115" y="27" width="1" height="1" fill="#c08a35"/><rect x="115" y="30" width="1" height="1" fill="#ff6a3d"/><rect x="112" y="33" width="1" height="1" fill="#c08a35"/><rect x="115" y="33" width="1" height="1" fill="#c08a35"/><rect x="112" y="39" width="1" height="1" fill="#c08a35"/><rect x="118" y="24" width="7" height="20" fill="#29231b"/><rect x="122" y="29" width="1" height="1" fill="#c08a35"/><rect x="119" y="35" width="1" height="1" fill="#c08a35"/><rect x="119" y="38" width="1" height="1" fill="#c08a35"/><rect x="125" y="27" width="6" height="17" fill="#29231b"/><rect x="129" y="29" width="1" height="1" fill="#c08a35"/><rect x="126" y="32" width="1" height="1" fill="#c08a35"/><rect x="126" y="35" width="1" height="1" fill="#ff6a3d"/><rect x="129" y="35" width="1" height="1" fill="#c08a35"/><rect x="129" y="38" width="1" height="1" fill="#c08a35"/><rect x="131" y="23" width="4" height="21" fill="#29231b"/><rect x="132" y="28" width="1" height="1" fill="#c08a35"/><rect x="132" y="37" width="1" height="1" fill="#c08a35"/><rect x="135" y="28" width="9" height="16" fill="#29231b"/><rect x="142" y="30" width="1" height="1" fill="#ff6a3d"/><rect x="142" y="36" width="1" height="1" fill="#c08a35"/><rect x="136" y="39" width="1" height="1" fill="#c08a35"/><rect x="144" y="21" width="9" height="23" fill="#29231b"/><rect x="145" y="23" width="1" height="1" fill="#c08a35"/><rect x="151" y="23" width="1" height="1" fill="#c08a35"/><rect x="145" y="26" width="1" height="1" fill="#c08a35"/><rect x="151" y="29" width="1" height="1" fill="#c08a35"/><rect x="145" y="35" width="1" height="1" fill="#c08a35"/><rect x="151" y="35" width="1" height="1" fill="#c08a35"/><rect x="145" y="38" width="1" height="1" fill="#c08a35"/><rect x="148" y="38" width="1" height="1" fill="#c08a35"/><rect x="153" y="32" width="8" height="12" fill="#29231b"/><rect x="161" y="27" width="4" height="17" fill="#29231b"/><rect x="162" y="32" width="1" height="1" fill="#c08a35"/><rect x="162" y="35" width="1" height="1" fill="#c08a35"/><rect x="162" y="38" width="1" height="1" fill="#ff6a3d"/><rect x="165" y="24" width="6" height="20" fill="#29231b"/><rect x="166" y="26" width="1" height="1" fill="#c08a35"/><rect x="166" y="29" width="1" height="1" fill="#c08a35"/><rect x="169" y="29" width="1" height="1" fill="#ff6a3d"/><rect x="166" y="35" width="1" height="1" fill="#c08a35"/><rect x="169" y="35" width="1" height="1" fill="#c08a35"/><rect x="166" y="38" width="1" height="1" fill="#c08a35"/><rect x="169" y="38" width="1" height="1" fill="#c08a35"/><rect x="171" y="27" width="10" height="17" fill="#29231b"/><rect x="172" y="29" width="1" height="1" fill="#ff6a3d"/><rect x="175" y="35" width="1" height="1" fill="#c08a35"/><rect x="178" y="35" width="1" height="1" fill="#c08a35"/><rect x="172" y="38" width="1" height="1" fill="#c08a35"/><rect x="181" y="23" width="5" height="21" fill="#29231b"/><rect x="182" y="25" width="1" height="1" fill="#ff6a3d"/><rect x="182" y="28" width="1" height="1" fill="#c08a35"/><rect x="182" y="31" width="1" height="1" fill="#c08a35"/><rect x="182" y="40" width="1" height="1" fill="#c08a35"/><rect x="186" y="29" width="5" height="15" fill="#29231b"/><rect x="187" y="31" width="1" height="1" fill="#ff6a3d"/><rect x="187" y="40" width="1" height="1" fill="#c08a35"/><rect x="191" y="20" width="8" height="24" fill="#29231b"/><rect x="195" y="22" width="1" height="1" fill="#c08a35"/><rect x="192" y="25" width="1" height="1" fill="#c08a35"/><rect x="195" y="25" width="1" height="1" fill="#c08a35"/><rect x="192" y="28" width="1" height="1" fill="#c08a35"/><rect x="195" y="28" width="1" height="1" fill="#ff6a3d"/><rect x="192" y="31" width="1" height="1" fill="#c08a35"/><rect x="192" y="34" width="1" height="1" fill="#c08a35"/><rect x="195" y="37" width="1" height="1" fill="#c08a35"/><rect x="199" y="25" width="1" height="19" fill="#29231b"/><g transform="translate(200,0)"><rect x="0" y="21" width="10" height="23" fill="#29231b"/><rect x="4" y="23" width="1" height="1" fill="#c08a35"/><rect x="4" y="26" width="1" height="1" fill="#c08a35"/><rect x="7" y="26" width="1" height="1" fill="#c08a35"/><rect x="1" y="29" width="1" height="1" fill="#ff6a3d"/><rect x="7" y="29" width="1" height="1" fill="#ff6a3d"/><rect x="10" y="26" width="6" height="18" fill="#29231b"/><rect x="11" y="31" width="1" height="1" fill="#c08a35"/><rect x="11" y="34" width="1" height="1" fill="#c08a35"/><rect x="14" y="34" width="1" height="1" fill="#c08a35"/><rect x="11" y="37" width="1" height="1" fill="#c08a35"/><rect x="14" y="37" width="1" height="1" fill="#c08a35"/><rect x="11" y="40" width="1" height="1" fill="#c08a35"/><rect x="16" y="20" width="10" height="24" fill="#29231b"/><rect x="23" y="22" width="1" height="1" fill="#c08a35"/><rect x="20" y="25" width="1" height="1" fill="#c08a35"/><rect x="23" y="25" width="1" height="1" fill="#c08a35"/><rect x="17" y="28" width="1" height="1" fill="#ff6a3d"/><rect x="20" y="28" width="1" height="1" fill="#c08a35"/><rect x="17" y="34" width="1" height="1" fill="#c08a35"/><rect x="20" y="34" width="1" height="1" fill="#c08a35"/><rect x="23" y="37" width="1" height="1" fill="#c08a35"/><rect x="17" y="40" width="1" height="1" fill="#c08a35"/><rect x="20" y="40" width="1" height="1" fill="#c08a35"/><rect x="23" y="40" width="1" height="1" fill="#c08a35"/><rect x="26" y="30" width="8" height="14" fill="#29231b"/><rect x="30" y="32" width="1" height="1" fill="#c08a35"/><rect x="34" y="27" width="10" height="17" fill="#29231b"/><rect x="35" y="29" width="1" height="1" fill="#c08a35"/><rect x="38" y="29" width="1" height="1" fill="#c08a35"/><rect x="41" y="32" width="1" height="1" fill="#c08a35"/><rect x="35" y="35" width="1" height="1" fill="#c08a35"/><rect x="38" y="35" width="1" height="1" fill="#ff6a3d"/><rect x="41" y="35" width="1" height="1" fill="#c08a35"/><rect x="44" y="19" width="8" height="25" fill="#29231b"/><rect x="48" y="21" width="1" height="1" fill="#c08a35"/><rect x="48" y="24" width="1" height="1" fill="#c08a35"/><rect x="48" y="36" width="1" height="1" fill="#c08a35"/><rect x="52" y="26" width="4" height="18" fill="#29231b"/><rect x="53" y="28" width="1" height="1" fill="#c08a35"/><rect x="56" y="29" width="4" height="15" fill="#29231b"/><rect x="57" y="31" width="1" height="1" fill="#c08a35"/><rect x="57" y="34" width="1" height="1" fill="#c08a35"/><rect x="60" y="18" width="10" height="26" fill="#29231b"/><rect x="64" y="20" width="1" height="1" fill="#c08a35"/><rect x="61" y="23" width="1" height="1" fill="#c08a35"/><rect x="64" y="23" width="1" height="1" fill="#c08a35"/><rect x="67" y="23" width="1" height="1" fill="#c08a35"/><rect x="64" y="26" width="1" height="1" fill="#c08a35"/><rect x="67" y="26" width="1" height="1" fill="#c08a35"/><rect x="67" y="29" width="1" height="1" fill="#c08a35"/><rect x="64" y="32" width="1" height="1" fill="#ff6a3d"/><rect x="67" y="32" width="1" height="1" fill="#ff6a3d"/><rect x="64" y="35" width="1" height="1" fill="#c08a35"/><rect x="64" y="38" width="1" height="1" fill="#c08a35"/><rect x="70" y="27" width="4" height="17" fill="#29231b"/><rect x="71" y="29" width="1" height="1" fill="#c08a35"/><rect x="71" y="38" width="1" height="1" fill="#c08a35"/><rect x="74" y="24" width="7" height="20" fill="#29231b"/><rect x="75" y="29" width="1" height="1" fill="#c08a35"/><rect x="75" y="35" width="1" height="1" fill="#ff6a3d"/><rect x="81" y="25" width="6" height="19" fill="#29231b"/><rect x="85" y="27" width="1" height="1" fill="#ff6a3d"/><rect x="82" y="30" width="1" height="1" fill="#c08a35"/><rect x="85" y="30" width="1" height="1" fill="#c08a35"/><rect x="82" y="36" width="1" height="1" fill="#c08a35"/><rect x="85" y="36" width="1" height="1" fill="#c08a35"/><rect x="87" y="27" width="9" height="17" fill="#29231b"/><rect x="91" y="35" width="1" height="1" fill="#c08a35"/><rect x="94" y="35" width="1" height="1" fill="#c08a35"/><rect x="96" y="23" width="9" height="21" fill="#29231b"/><rect x="97" y="25" width="1" height="1" fill="#c08a35"/><rect x="103" y="25" width="1" height="1" fill="#c08a35"/><rect x="97" y="28" width="1" height="1" fill="#c08a35"/><rect x="100" y="31" width="1" height="1" fill="#c08a35"/><rect x="103" y="31" width="1" height="1" fill="#ff6a3d"/><rect x="103" y="34" width="1" height="1" fill="#c08a35"/><rect x="100" y="37" width="1" height="1" fill="#ff6a3d"/><rect x="97" y="40" width="1" height="1" fill="#c08a35"/><rect x="105" y="23" width="6" height="21" fill="#29231b"/><rect x="106" y="25" width="1" height="1" fill="#c08a35"/><rect x="106" y="28" width="1" height="1" fill="#c08a35"/><rect x="109" y="34" width="1" height="1" fill="#c08a35"/><rect x="109" y="37" width="1" height="1" fill="#c08a35"/><rect x="106" y="40" width="1" height="1" fill="#c08a35"/><rect x="111" y="25" width="7" height="19" fill="#29231b"/><rect x="115" y="27" width="1" height="1" fill="#c08a35"/><rect x="115" y="30" width="1" height="1" fill="#ff6a3d"/><rect x="112" y="33" width="1" height="1" fill="#c08a35"/><rect x="115" y="33" width="1" height="1" fill="#c08a35"/><rect x="112" y="39" width="1" height="1" fill="#c08a35"/><rect x="118" y="24" width="7" height="20" fill="#29231b"/><rect x="122" y="29" width="1" height="1" fill="#c08a35"/><rect x="119" y="35" width="1" height="1" fill="#c08a35"/><rect x="119" y="38" width="1" height="1" fill="#c08a35"/><rect x="125" y="27" width="6" height="17" fill="#29231b"/><rect x="129" y="29" width="1" height="1" fill="#c08a35"/><rect x="126" y="32" width="1" height="1" fill="#c08a35"/><rect x="126" y="35" width="1" height="1" fill="#ff6a3d"/><rect x="129" y="35" width="1" height="1" fill="#c08a35"/><rect x="129" y="38" width="1" height="1" fill="#c08a35"/><rect x="131" y="23" width="4" height="21" fill="#29231b"/><rect x="132" y="28" width="1" height="1" fill="#c08a35"/><rect x="132" y="37" width="1" height="1" fill="#c08a35"/><rect x="135" y="28" width="9" height="16" fill="#29231b"/><rect x="142" y="30" width="1" height="1" fill="#ff6a3d"/><rect x="142" y="36" width="1" height="1" fill="#c08a35"/><rect x="136" y="39" width="1" height="1" fill="#c08a35"/><rect x="144" y="21" width="9" height="23" fill="#29231b"/><rect x="145" y="23" width="1" height="1" fill="#c08a35"/><rect x="151" y="23" width="1" height="1" fill="#c08a35"/><rect x="145" y="26" width="1" height="1" fill="#c08a35"/><rect x="151" y="29" width="1" height="1" fill="#c08a35"/><rect x="145" y="35" width="1" height="1" fill="#c08a35"/><rect x="151" y="35" width="1" height="1" fill="#c08a35"/><rect x="145" y="38" width="1" height="1" fill="#c08a35"/><rect x="148" y="38" width="1" height="1" fill="#c08a35"/><rect x="153" y="32" width="8" height="12" fill="#29231b"/><rect x="161" y="27" width="4" height="17" fill="#29231b"/><rect x="162" y="32" width="1" height="1" fill="#c08a35"/><rect x="162" y="35" width="1" height="1" fill="#c08a35"/><rect x="162" y="38" width="1" height="1" fill="#ff6a3d"/><rect x="165" y="24" width="6" height="20" fill="#29231b"/><rect x="166" y="26" width="1" height="1" fill="#c08a35"/><rect x="166" y="29" width="1" height="1" fill="#c08a35"/><rect x="169" y="29" width="1" height="1" fill="#ff6a3d"/><rect x="166" y="35" width="1" height="1" fill="#c08a35"/><rect x="169" y="35" width="1" height="1" fill="#c08a35"/><rect x="166" y="38" width="1" height="1" fill="#c08a35"/><rect x="169" y="38" width="1" height="1" fill="#c08a35"/><rect x="171" y="27" width="10" height="17" fill="#29231b"/><rect x="172" y="29" width="1" height="1" fill="#ff6a3d"/><rect x="175" y="35" width="1" height="1" fill="#c08a35"/><rect x="178" y="35" width="1" height="1" fill="#c08a35"/><rect x="172" y="38" width="1" height="1" fill="#c08a35"/><rect x="181" y="23" width="5" height="21" fill="#29231b"/><rect x="182" y="25" width="1" height="1" fill="#ff6a3d"/><rect x="182" y="28" width="1" height="1" fill="#c08a35"/><rect x="182" y="31" width="1" height="1" fill="#c08a35"/><rect x="182" y="40" width="1" height="1" fill="#c08a35"/><rect x="186" y="29" width="5" height="15" fill="#29231b"/><rect x="187" y="31" width="1" height="1" fill="#ff6a3d"/><rect x="187" y="40" width="1" height="1" fill="#c08a35"/><rect x="191" y="20" width="8" height="24" fill="#29231b"/><rect x="195" y="22" width="1" height="1" fill="#c08a35"/><rect x="192" y="25" width="1" height="1" fill="#c08a35"/><rect x="195" y="25" width="1" height="1" fill="#c08a35"/><rect x="192" y="28" width="1" height="1" fill="#c08a35"/><rect x="195" y="28" width="1" height="1" fill="#ff6a3d"/><rect x="192" y="31" width="1" height="1" fill="#c08a35"/><rect x="192" y="34" width="1" height="1" fill="#c08a35"/><rect x="195" y="37" width="1" height="1" fill="#c08a35"/><rect x="199" y="25" width="1" height="19" fill="#29231b"/></g></g><g class="near"><rect x="0" y="38" width="7" height="6" fill="#0b0a07"/><rect x="7" y="38" width="10" height="6" fill="#0b0a07"/><rect x="17" y="36" width="11" height="8" fill="#0b0a07"/><rect x="28" y="32" width="10" height="12" fill="#0b0a07"/><rect x="38" y="38" width="8" height="6" fill="#0b0a07"/><rect x="46" y="36" width="12" height="8" fill="#0b0a07"/><rect x="58" y="34" width="6" height="10" fill="#0b0a07"/><rect x="64" y="33" width="11" height="11" fill="#0b0a07"/><rect x="75" y="35" width="10" height="9" fill="#0b0a07"/><rect x="85" y="32" width="12" height="12" fill="#0b0a07"/><rect x="97" y="34" width="14" height="10" fill="#0b0a07"/><rect x="111" y="33" width="6" height="11" fill="#0b0a07"/><rect x="117" y="32" width="8" height="12" fill="#0b0a07"/><rect x="125" y="37" width="14" height="7" fill="#0b0a07"/><rect x="139" y="32" width="10" height="12" fill="#0b0a07"/><rect x="149" y="32" width="6" height="12" fill="#0b0a07"/><rect x="155" y="37" width="13" height="7" fill="#0b0a07"/><rect x="168" y="33" width="9" height="11" fill="#0b0a07"/><rect x="177" y="35" width="11" height="9" fill="#0b0a07"/><rect x="188" y="37" width="6" height="7" fill="#0b0a07"/><rect x="194" y="33" width="6" height="11" fill="#0b0a07"/><g transform="translate(200,0)"><rect x="0" y="38" width="7" height="6" fill="#0b0a07"/><rect x="7" y="38" width="10" height="6" fill="#0b0a07"/><rect x="17" y="36" width="11" height="8" fill="#0b0a07"/><rect x="28" y="32" width="10" height="12" fill="#0b0a07"/><rect x="38" y="38" width="8" height="6" fill="#0b0a07"/><rect x="46" y="36" width="12" height="8" fill="#0b0a07"/><rect x="58" y="34" width="6" height="10" fill="#0b0a07"/><rect x="64" y="33" width="11" height="11" fill="#0b0a07"/><rect x="75" y="35" width="10" height="9" fill="#0b0a07"/><rect x="85" y="32" width="12" height="12" fill="#0b0a07"/><rect x="97" y="34" width="14" height="10" fill="#0b0a07"/><rect x="111" y="33" width="6" height="11" fill="#0b0a07"/><rect x="117" y="32" width="8" height="12" fill="#0b0a07"/><rect x="125" y="37" width="14" height="7" fill="#0b0a07"/><rect x="139" y="32" width="10" height="12" fill="#0b0a07"/><rect x="149" y="32" width="6" height="12" fill="#0b0a07"/><rect x="155" y="37" width="13" height="7" fill="#0b0a07"/><rect x="168" y="33" width="9" height="11" fill="#0b0a07"/><rect x="177" y="35" width="11" height="9" fill="#0b0a07"/><rect x="188" y="37" width="6" height="7" fill="#0b0a07"/><rect x="194" y="33" width="6" height="11" fill="#0b0a07"/></g></g></svg>